<svg id="Layer_1" data-name="Layer 1" xmlns="http://www.w3.org/2000/svg"
viewBox="0 30 240 100"><title>company-bl-tnw2020</title><path d="M138.4603,91.85889V85.704a4.57889,4.57889,0,0,1,3.36646-4.86279l6.597-2.48238A1.6575,1.6575,0,0,0,149.716,76.4546V72.85a1.71677,1.71677,0,0,0-1.9383-1.90421h-3.97857a1.70284,1.70284,0,0,0-1.9383,1.90421v2.95844h-3.26449v-2.7883c0-3.19646,1.76816-4.99884,4.99871-4.99884h4.48871c3.23041,0,4.99871,1.80238,4.99871,4.99884V76.4546a4.27363,4.27363,0,0,1-3.06041,4.42068l-6.835,2.58435a1.78542,1.78542,0,0,0-1.39422,2.07436v3.36646h11.59572v2.95844Z"/><path d="M156.88849,73.02011c0-3.19646,1.7683-4.99884,4.99884-4.99884H166.818c3.19647,0,4.99871,1.80238,4.99871,4.99884v13.976c0,3.1966-1.80224,4.99884-4.99871,4.99884h-4.93068c-3.23054,0-4.99884-1.80224-4.99884-4.99884ZM166.546,89.07045a1.753,1.753,0,0,0,1.90422-2.00632V72.95208a1.753,1.753,0,0,0-1.90422-2.00632h-4.35265a1.74843,1.74843,0,0,0-1.9383,2.00632V87.06413a1.74843,1.74843,0,0,0,1.9383,2.00632Z"/><path d="M175.53086,91.85889V85.704a4.5789,4.5789,0,0,1,3.36647-4.86279l6.597-2.48238a1.65751,1.65751,0,0,0,1.29225-1.90422V72.85a1.71677,1.71677,0,0,0-1.9383-1.90421h-3.97857a1.70284,1.70284,0,0,0-1.9383,1.90421v2.95844h-3.26449v-2.7883c0-3.19646,1.76816-4.99884,4.99871-4.99884h4.4887c3.23041,0,4.99871,1.80238,4.99871,4.99884V76.4546a4.27362,4.27362,0,0,1-3.06041,4.42068l-6.835,2.58435a1.78542,1.78542,0,0,0-1.39422,2.07436v3.36646H190.4591v2.95844Z"/><path d="M193.95905,73.02011c0-3.19646,1.7683-4.99884,4.99885-4.99884h4.93068c3.19646,0,4.99871,1.80238,4.99871,4.99884v13.976c0,3.1966-1.80225,4.99884-4.99871,4.99884H198.9579c-3.23055,0-4.99885-1.80224-4.99885-4.99884Zm9.65756,16.05034a1.753,1.753,0,0,0,1.90421-2.00632V72.95208a1.753,1.753,0,0,0-1.90421-2.00632H199.264a1.74844,1.74844,0,0,0-1.9383,2.00632V87.06413a1.74844,1.74844,0,0,0,1.9383,2.00632Z"/><path d="M74.391,70.62819a8.95583,8.95583,0,0,0-6.33276-2.62313H54.99484V91.8872h8.95581V76.96086h2.871a2.99,2.99,0,0,1,2.11295.87432l3.09332,3.09131a2.989,2.989,0,0,1,.8785,2.111V91.8872h8.95581V81.8009a8.96,8.96,0,0,0-2.62715-6.33267Z"/><path d="M120.67074,68.00506v8.84976a2.98892,2.98892,0,0,1-.87851,2.11086l-3.0955,3.09131a2.98482,2.98482,0,0,1-2.11086.87441h-4.302a8.94333,8.94333,0,0,0,1.431-4.84013V68.00506h-8.9558v8.84976a2.98892,2.98892,0,0,1-.87851,2.11086L98.78512,82.057a2.98481,2.98481,0,0,1-2.11086.87441H93.80333V68.00506H84.84752V91.8872H97.9109a8.9603,8.9603,0,0,0,6.33476-2.62313L107.237,86.274V91.8872h8.58547a8.96034,8.96034,0,0,0,6.33477-2.62313l4.84213-4.84013a8.95975,8.95975,0,0,0,2.62714-6.33267V68.00506Z"/><polygon points="31.113 76.961 37.083 76.961 37.083 91.887 46.039 91.887 46.039 76.961 52.01 76.961 52.01 68.005 31.113 68.005 31.113 76.961"/></svg>